<?xml version="1.0" encoding="UTF-8"?>
<svg version="1.1" xmlns="http://www.w3.org/2000/svg" width="32" height="32">
<path d="M0 0 C2.93453261 0.36681658 3.86437246 0.86437246 6 3 C6 3.99 6 4.98 6 6 C5.01 5.67 4.02 5.34 3 5 C2.67 8.96 2.34 12.92 2 17 C1.34 17 0.68 17 0 17 C-0.33 13.37 -0.66 9.74 -1 6 C-1.99 6 -2.98 6 -4 6 C-2.84826645 3.53199953 -1.95216435 1.95216435 0 0 Z " fill="#FFFFFF" transform="translate(10,1)"/>
<path d="M0 0 C0.66 0 1.32 0 2 0 C2.33 3.63 2.66 7.26 3 11 C3.99 11 4.98 11 6 11 C4.95125002 13.62187494 4.35068687 14.79371361 1.875 16.25 C1.25625 16.4975 0.6375 16.745 0 17 C-1.37562854 15.71034824 -2.70766393 14.37310707 -4 13 C-4 12.34 -4 11.68 -4 11 C-3.01 11 -2.02 11 -1 11 C-0.67 7.37 -0.34 3.74 0 0 Z " fill="#FFFFFF" transform="translate(21,1)"/>
<path d="M0 0 C1.66611905 -0.042721 3.33382885 -0.04063832 5 0 C6 1 6 1 6.0625 3.3125 C6.041875 4.199375 6.02125 5.08625 6 6 C6 7.32 6 8.64 6 10 C3.69 10 1.38 10 -1 10 C-1 7 -1 7 1 4.8125 C1.66 4.214375 2.32 3.61625 3 3 C1.02 3.99 1.02 3.99 -1 5 C-0.67 3.35 -0.34 1.7 0 0 Z " fill="#FFFFFF" transform="translate(9,21)"/>
<path d="M0 0 C2.31 0 4.62 0 7 0 C7 0.66 7 1.32 7 2 C5.35 2 3.7 2 2 2 C2 3.98 2 5.96 2 8 C2.99 8 3.98 8 5 8 C5 7.34 5 6.68 5 6 C4.34 6 3.68 6 3 6 C3 5.34 3 4.68 3 4 C4.32 4 5.64 4 7 4 C7 5.98 7 7.96 7 10 C4.69 10 2.38 10 0 10 C0 6.7 0 3.4 0 0 Z " fill="#FFFFFF" transform="translate(17,21)"/>
</svg>
