<?xml version="1.0" encoding="UTF-8"?>
<svg version="1.1" xmlns="http://www.w3.org/2000/svg" width="24" height="24">
<path d="M0 0 C0.85464844 -0.01675781 1.70929687 -0.03351562 2.58984375 -0.05078125 C5.56077644 0.38570649 6.93915524 1.20886146 9.0625 3.3125 C9.0625 4.3025 9.0625 5.2925 9.0625 6.3125 C7.4125 6.9725 5.7625 7.6325 4.0625 8.3125 C4.0625 9.3025 4.0625 10.2925 4.0625 11.3125 C1.4225 11.3125 -1.2175 11.3125 -3.9375 11.3125 C-3.9375 10.3225 -3.9375 9.3325 -3.9375 8.3125 C-4.9275 8.3125 -5.9175 8.3125 -6.9375 8.3125 C-6.9375 7.6525 -6.9375 6.9925 -6.9375 6.3125 C-7.5975 6.3125 -8.2575 6.3125 -8.9375 6.3125 C-8.625 4.4375 -8.625 4.4375 -7.9375 2.3125 C-4.73125113 0.17500075 -3.71291897 0.01675001 0 0 Z " fill="#FFFFFF" transform="translate(11.9375,-0.3125)"/>
<path d="M0 0 C3.96 0 7.92 0 12 0 C12 0.66 12 1.32 12 2 C11.01 2.33 10.02 2.66 9 3 C9.99 3.33 10.98 3.66 12 4 C12 5.65 12 7.3 12 9 C8.04 9 4.08 9 0 9 C0 6.03 0 3.06 0 0 Z " fill="#FFFFFF" transform="translate(6,13)"/>
</svg>
