<?xml version="1.0" encoding="UTF-8"?>
<svg version="1.1" xmlns="http://www.w3.org/2000/svg" width="50" height="50">
<path d="M0 0 C0.91007812 0.00902344 1.82015625 0.01804687 2.7578125 0.02734375 C3.45648438 0.03894531 4.15515625 0.05054687 4.875 0.0625 C5.205 0.7225 5.535 1.3825 5.875 2.0625 C5.545 2.7225 5.215 3.3825 4.875 4.0625 C2.88932292 3.99739583 0.90364583 3.93229167 -1.08203125 3.8671875 C-3.43859719 3.92995538 -3.43859719 3.92995538 -6.125 6.0625 C-6.96841948 9.04690741 -7.28101114 11.260157 -6.6875 14.3125 C-4.09953312 17.2110229 -0.87244018 17.337189 2.875 18.0625 C2.875 16.4125 2.875 14.7625 2.875 13.0625 C1.555 13.0625 0.235 13.0625 -1.125 13.0625 C-1.125 12.0725 -1.125 11.0825 -1.125 10.0625 C1.185 10.0625 3.495 10.0625 5.875 10.0625 C5.90188151 11.70824566 5.92134123 13.35411413 5.9375 15 C5.94910156 15.91652344 5.96070312 16.83304688 5.97265625 17.77734375 C5.875 20.0625 5.875 20.0625 4.875 21.0625 C-0.36282614 21.67768092 -4.70117815 21.90004227 -9.3125 19.1875 C-11.86677351 14.78358016 -12.03193671 11.03839598 -11.125 6.0625 C-7.98730674 0.93760101 -5.81234076 -0.07451719 0 0 Z " fill="#FFFFFF" transform="translate(35.125,24.9375)"/>
<path d="M0 0 C3.66030319 2.21192515 6.03784402 4.85050528 8.4375 8.375 C8.4375 9.365 8.4375 10.355 8.4375 11.375 C4.52870039 9.72127709 1.67538375 7.07323646 -1.5625 4.375 C-6.49948379 1.32630702 -11.95857754 1.66373292 -17.5625 2.375 C-22.46440509 4.35948093 -25.92884989 7.60159412 -29.5625 11.375 C-30.2225 11.375 -30.8825 11.375 -31.5625 11.375 C-31.48052415 8.58782111 -31.00014605 6.85747233 -29.11328125 4.77734375 C-21.13488849 -2.26648674 -10.04987578 -4.60299654 0 0 Z " fill="#FFFFFF" transform="translate(36.5625,3.625)"/>
<path d="M0 0 C0 3.96 0 7.92 0 12 C0.99 12 1.98 12 3 12 C3 12.99 3 13.98 3 15 C2.01 15 1.02 15 0 15 C0 16.65 0 18.3 0 20 C-0.99 20 -1.98 20 -3 20 C-3 18.35 -3 16.7 -3 15 C-5.97 15 -8.94 15 -12 15 C-11.85514976 9.35084046 -9.17240795 6.07696142 -5.88671875 1.7578125 C-4 0 -4 0 0 0 Z M-4 5 C-5.32 7.31 -6.64 9.62 -8 12 C-6.35 12 -4.7 12 -3 12 C-3 9.69 -3 7.38 -3 5 C-3.33 5 -3.66 5 -4 5 Z " fill="#FFFFFF" transform="translate(20,26)"/>
<path d="M0 0 C3.33253355 1.81969177 5.8864765 3.93684272 7.76171875 7.24609375 C7.76171875 7.90609375 7.76171875 8.56609375 7.76171875 9.24609375 C3.87610451 8.6704472 1.71558518 6.73356021 -1.23828125 4.24609375 C-4.94334526 2.39356175 -9.19483356 2.78097323 -13.23828125 3.24609375 C-16.47767781 4.98148477 -18.66149259 6.66930509 -21.23828125 9.24609375 C-22.22828125 9.24609375 -23.21828125 9.24609375 -24.23828125 9.24609375 C-22.88672843 4.82282997 -21.03937687 2.84196393 -17.23828125 0.24609375 C-11.87617175 -1.54127608 -5.40044198 -1.81899704 0 0 Z " fill="#FFFFFF" transform="translate(33.23828125,7.75390625)"/>
<path d="M0 0 C5.4939759 2.69879518 5.4939759 2.69879518 6.875 6.25 C6.91625 6.8275 6.9575 7.405 7 8 C4.4988252 7.55336164 3.17243054 7.15395584 1.25 5.4375 C-2.03828476 3.33665141 -5.25919343 3.29207844 -9 4 C-11.7905817 5.89816542 -11.7905817 5.89816542 -14 8 C-14.99 8 -15.98 8 -17 8 C-16.11593727 5.02633445 -15.31696033 3.2872453 -13 1.1875 C-8.62253653 -0.54524596 -4.64495253 -0.67522473 0 0 Z " fill="#FFFFFF" transform="translate(30,12)"/>
<path d="M0 0 C2.5 1.875 2.5 1.875 4 4 C4 4.66 4 5.32 4 6 C0.125 5.125 0.125 5.125 -1 4 C-3.95817107 3.74994614 -3.95817107 3.74994614 -7 4 C-7.66 4.66 -8.32 5.32 -9 6 C-9.99 6 -10.98 6 -12 6 C-9.72169165 -0.34671611 -6.61631841 -0.98067961 0 0 Z " fill="#FFFFFF" transform="translate(29,17)"/>
</svg>
